PathFileType	4	(x/y/z)	S08_M20_T09
DataRate	CameraRate	NumFrames	NumMarkers	Units	OrigDataRate	OrigDataStartFrame	OrigNumFrames
240	240	8	51	mm	240	192	510
Frame#	Time	Sternum			R.Acromium			L.Acromium			Top.Head			R.ASIS			L.ASIS			R.PSIS			L.PSIS			R.Great.Tro			L.Great.Tro			R.Iliac.Crest			L.Iliac.Crest			V.Sacral			R.Thigh.Upper.Post			R.Thigh.Lower.Ant			R.Thigh.Lower.Post			R.Thigh.Upper.Ant			R.Knee.Lat			R.Knee.Med			R.Shank.Upper.Post			R.Shank.Lower.Ant			R.Shank.Lower.Post			R.Shank.Upper.Ant			R.Ankle.Lat			R.Ankle.Med			R.Heel.Upper			R.Heel.Med			R.Heel.Lat			R.Toe.Lat			R.Toe.Med			R.Toe.Tip			L.Thigh.Upper.Post			L.Thigh.Lower.Ant			L.Thigh.Lower.Post			L.Thigh.Upper.Ant			L.Knee.Lat			L.Knee.Med			L.Shank.Upper.Post			L.Shank.Lower.Ant			L.Shank.Lower.Post			L.Shank.Upper.Ant			L.Ankle.Lat			L.Ankle.Med			L.Heel.Upper			L.Heel.Med			L.Heel.Lat			L.Toe.Lat			L.Toe.Med			L.Toe.Tip			Cervical.Spine			Back			
		X1	Y1	Z1	X2	Y2	Z2	X3	Y3	Z3	X4	Y4	Z4	X5	Y5	Z5	X6	Y6	Z6	X7	Y7	Z7	X8	Y8	Z8	X9	Y9	Z9	X10	Y10	Z10	X11	Y11	Z11	X12	Y12	Z12	X13	Y13	Z13	X14	Y14	Z14	X15	Y15	Z15	X16	Y16	Z16	X17	Y17	Z17	X18	Y18	Z18	X19	Y19	Z19	X20	Y20	Z20	X21	Y21	Z21	X22	Y22	Z22	X23	Y23	Z23	X24	Y24	Z24	X25	Y25	Z25	X26	Y26	Z26	X27	Y27	Z27	X28	Y28	Z28	X29	Y29	Z29	X30	Y30	Z30	X31	Y31	Z31	X32	Y32	Z32	X33	Y33	Z33	X34	Y34	Z34	X35	Y35	Z35	X36	Y36	Z36	X37	Y37	Z37	X38	Y38	Z38	X39	Y39	Z39	X40	Y40	Z40	X41	Y41	Z41	X42	Y42	Z42	X43	Y43	Z43	X44	Y44	Z44	X45	Y45	Z45	X46	Y46	Z46	X47	Y47	Z47	X48	Y48	Z48	X49	Y49	Z49	X50	Y50	Z50	X51	Y51	Z51	

192	0.79583	-548.75	1212.6	339.49	-680.98	1430.8	527.03	-692.35	1475.4	194.4	-676.36	1760.3	383.19	-551.82	998.28	446.37	-565.12	981.93	214.54	-756.59	1019	385.79	-766.04	1021.8	292.18	-600.65	892.83	526.06	-679.53	878.81	161.13	-646.62	1065.8	498.3	-659.89	1065.4	189.6	-778.67	980.57	341.43	-553.38	693.99	506.45	-452.16	628.4	458.76	-519.27	612.8	480.54	-480.86	716.42	483.63	-455.04	526.43	450.35	-496.32	523.04	330.69	-500.18	334.25	461.27	-437.61	277.81	429.55	-495.44	257.42	450.87	-441.62	355.08	441.45	-490.2	91.151	408.05	-465.22	115.27	329.66	-537.36	63.233	356.36	-522.62	37.628	328.15	-530.09	37.347	389.7	NaN	NaN	NaN	-340.08	59.391	316.63	-279.7	86.073	363.7	-743.07	682.97	179.94	-672.75	577.17	183.13	-742.14	591.82	190.09	-673.92	664.71	169.09	-753.3	495.22	198.65	-735.44	481.11	322.74	-915.42	412.11	196.94	-935.75	302.31	211.31	-971.73	365.38	212.43	-880.72	356.81	198.63	-1081.3	231.55	218.85	-1062	218.49	306.54	-1117.9	274.28	267.99	-1143.5	255.23	302.15	-1143.1	257.48	237.62	-1102.3	86.322	222.29	-1085.5	82.858	336.78	-1048.9	33.836	295.88	-757.2	1493.4	354.35	-788.41	1205.1	347.74
193	0.8	-543.19	1213.5	339.48	-674.88	1431.6	527.25	-686.81	1476.5	194.72	-670.94	1761.2	383.75	-546.54	999.06	446.75	-559.75	982.65	214.98	-751.32	1019.9	386.13	-760.24	1022.4	292.66	-595.68	893.48	526.54	-673.73	879.08	161.78	-641.19	1066.7	498.57	-654.52	1066	189.91	-773.17	981.4	341.81	-549.61	694.35	506.8	-448.69	628.12	459.27	-515.96	612.94	480.89	-476.87	716.26	484.11	-452.2	526.19	450.74	-493.46	523.15	331.03	-498.51	334.31	461.36	-436.18	277.48	429.64	-494.18	257.47	450.91	-439.78	354.83	441.7	-489.82	91.225	408.07	-464.72	115.3	329.73	-537.16	63.401	356.43	-522.54	37.763	328.21	-529.95	37.498	389.73	NaN	NaN	NaN	-339.9	58.687	316.43	-279.21	84.965	363.41	-734.84	682.16	180.13	-663.36	577.12	183.17	-732.91	590.98	190.1	-665.47	664.7	169.33	-742.82	494.64	198.41	-724.98	480.37	322.63	-905.12	412.93	196.44	-926.72	303.37	211.06	-961.88	366.78	211.93	-870.97	357.33	198.31	-1072.7	234.43	218.27	-1053.5	220.99	306.16	-1107.9	278.13	267.43	-1133.9	259.77	301.71	-1133.6	261.98	237.16	-1097.2	89.449	222	-1080.2	85.617	336.36	-1045.3	34.252	295.39	-751.44	1494.3	354.8	-782.81	1206.1	348.14
194	0.80417	-537.69	1214.4	339.44	-668.8	1432.4	527.45	-681.33	1477.5	195.03	-665.52	1762	384.3	-541.29	999.85	447.13	-554.42	983.38	215.41	-746.11	1020.8	386.47	-754.34	1023	293.14	-590.74	894.13	527	-667.95	879.39	162.4	-635.79	1067.7	498.84	-649.2	1066.6	190.21	-767.7	982.26	342.18	-545.93	694.72	507.11	-445.34	627.82	459.75	-512.78	613.08	481.21	-472.98	716.1	484.56	-449.49	525.96	451.1	-490.73	523.25	331.35	-496.93	334.38	461.42	-434.84	277.17	429.7	-493	257.52	450.92	-438.05	354.59	441.93	-489.45	91.307	408.07	-464.26	115.32	329.77	-536.99	63.555	356.48	-522.47	37.882	328.25	-529.81	37.645	389.76	NaN	NaN	NaN	-339.74	58.017	316.22	-278.75	83.92	363.1	-726.53	681.42	180.26	-653.91	577.14	183.23	-723.61	590.23	190.09	-656.94	664.75	169.55	-732.28	494.14	198.19	-714.5	479.72	322.54	-894.73	413.78	195.96	-917.55	304.48	210.82	-951.9	368.18	211.44	-861.11	357.88	198.01	-1063.9	237.29	217.71	-1044.8	223.48	305.78	-1097.8	281.86	266.91	-1124.2	264.16	301.31	-1124	266.34	236.74	-1091.8	92.596	221.71	-1074.5	88.397	335.94	-1041.2	34.885	294.86	-745.72	1495.3	355.27	-777.25	1207.1	348.57
195	0.80833	-532.25	1215.3	339.38	-662.74	1433.3	527.65	-675.89	1478.6	195.32	-660.1	1762.8	384.85	-536.08	1000.6	447.5	-549.13	984.15	215.83	-740.95	1021.8	386.81	-748.39	1023.6	293.61	-585.85	894.78	527.45	-662.17	879.74	163	-630.42	1068.6	499.12	-643.92	1067.2	190.5	-762.28	983.13	342.56	-542.34	695.08	507.38	-442.1	627.51	460.18	-509.7	613.22	481.5	-469.19	715.93	484.99	-446.89	525.73	451.43	-488.11	523.35	331.63	-495.46	334.45	461.45	-433.59	276.87	429.74	-491.9	257.58	450.89	-436.42	354.37	442.14	-489.12	91.397	408.05	-463.84	115.34	329.8	-536.83	63.699	356.52	-522.4	37.99	328.29	-529.69	37.788	389.78	NaN	NaN	NaN	-339.59	57.38	316	-278.33	82.936	362.78	-718.15	680.75	180.34	-644.42	577.23	183.3	-714.22	589.57	190.03	-648.35	664.86	169.77	-721.69	493.73	197.97	-704	479.18	322.47	-884.24	414.66	195.49	-908.23	305.63	210.59	-941.81	369.59	210.96	-851.14	358.48	197.71	-1055.1	240.11	217.18	-1036	225.94	305.41	-1087.7	285.48	266.43	-1114.4	268.39	300.95	-1114.3	270.54	236.37	-1085.9	95.749	221.41	-1068.5	91.187	335.51	-1036.7	35.74	294.3	-740.02	1496.2	355.73	-771.75	1208.1	349.02
196	0.8125	-526.86	1216.1	339.31	-656.69	1434.1	527.84	-670.51	1479.7	195.6	-654.68	1763.7	385.37	-530.9	1001.4	447.87	-543.88	984.94	216.24	-735.83	1022.8	387.14	-742.41	1024.3	294.06	-581	895.44	527.88	-656.39	880.11	163.57	-625.09	1069.6	499.4	-638.69	1067.8	190.79	-756.89	984.01	342.94	-538.83	695.45	507.64	-438.95	627.2	460.58	-506.71	613.38	481.75	-465.47	715.76	485.38	-444.4	525.51	451.73	-485.58	523.45	331.87	-494.07	334.52	461.45	-432.41	276.58	429.76	-490.87	257.65	450.85	-434.87	354.16	442.33	-488.81	91.495	408.02	-463.44	115.36	329.81	-536.69	63.834	356.55	-522.33	38.087	328.31	-529.58	37.927	389.79	NaN	NaN	NaN	-339.46	56.777	315.78	-277.93	82.009	362.46	-709.7	680.14	180.38	-634.89	577.41	183.4	-704.76	589	189.95	-639.7	665.04	169.97	-711.06	493.41	197.77	-693.48	478.74	322.42	-873.67	415.56	195.04	-898.77	306.83	210.36	-931.62	371.02	210.5	-841.07	359.12	197.42	-1046.1	242.91	216.68	-1027	228.4	305.03	-1077.4	288.96	265.99	-1104.5	272.44	300.63	-1104.6	274.57	236.04	-1079.8	98.894	221.09	-1062	93.975	335.07	-1031.8	36.816	293.71	-734.36	1497.2	356.19	-766.3	1209.1	349.49
197	0.81667	-521.52	1217	339.22	-650.67	1434.9	528.02	-665.17	1480.7	195.86	-649.25	1764.5	385.89	-525.76	1002.2	448.23	-538.66	985.76	216.64	-730.76	1023.8	387.46	-736.45	1025	294.49	-576.2	896.1	528.29	-650.62	880.53	164.11	-619.79	1070.6	499.67	-633.48	1068.5	191.07	-751.55	984.91	343.31	-535.39	695.83	507.87	-435.89	626.9	460.94	-503.81	613.55	481.99	-461.84	715.6	485.74	-442.01	525.29	452.01	-483.14	523.55	332.08	-492.76	334.6	461.43	-431.3	276.31	429.78	-489.91	257.73	450.78	-433.41	353.96	442.5	-488.52	91.6	407.97	-463.08	115.39	329.8	-536.57	63.962	356.57	-522.28	38.175	328.33	-529.47	38.063	389.79	NaN	NaN	NaN	-339.34	56.207	315.56	-277.57	81.136	362.14	-701.19	679.61	180.38	-625.32	577.66	183.52	-695.23	588.52	189.84	-630.99	665.28	170.16	-700.39	493.18	197.58	-682.94	478.39	322.39	-863.04	416.5	194.61	-889.16	308.07	210.13	-921.34	372.47	210.06	-830.92	359.81	197.15	-1036.9	245.68	216.2	-1017.8	230.84	304.64	-1067.2	292.33	265.58	-1094.5	276.31	300.34	-1094.8	278.44	235.73	-1073.2	102.02	220.75	-1055.1	96.748	334.62	-1026.3	38.104	293.08	-728.74	1498.2	356.66	-760.89	1210.2	349.98
198	0.82083	-516.23	1217.9	339.12	-644.69	1435.8	528.19	-659.88	1481.8	196.1	-643.81	1765.4	386.39	-520.66	1003.1	448.59	-533.47	986.61	217.03	-725.73	1024.8	387.77	-730.54	1025.7	294.89	-571.44	896.78	528.68	-644.85	880.97	164.62	-614.53	1071.5	499.94	-628.32	1069.1	191.34	-746.26	985.82	343.66	-532.02	696.22	508.09	-432.91	626.61	461.27	-500.98	613.73	482.21	-458.28	715.45	486.08	-439.71	525.09	452.26	-480.76	523.66	332.26	-491.52	334.68	461.39	-430.26	276.06	429.79	-489	257.81	450.7	-432.03	353.77	442.66	-488.24	91.711	407.91	-462.75	115.41	329.78	-536.45	64.084	356.57	-522.22	38.258	328.34	-529.38	38.196	389.79	NaN	NaN	NaN	-339.23	55.669	315.35	-277.24	80.313	361.82	-692.62	679.14	180.34	-615.72	577.98	183.66	-685.64	588.13	189.71	-622.23	665.59	170.33	-689.69	493.04	197.4	-672.4	478.15	322.37	-852.34	417.49	194.21	-879.4	309.36	209.9	-910.98	373.95	209.64	-820.69	360.55	196.88	-1027.7	248.41	215.75	-1008.5	233.27	304.26	-1056.9	295.57	265.2	-1084.4	279.98	300.07	-1084.9	282.13	235.45	-1066.2	105.1	220.38	-1047.9	99.493	334.15	-1020.2	39.589	292.43	-723.14	1499.3	357.12	-755.54	1211.2	350.48
199	0.825	-510.98	1218.7	339.01	-638.74	1436.7	528.36	-654.62	1482.9	196.33	-638.35	1766.3	386.87	-515.59	1003.9	448.94	-528.3	987.48	217.41	-720.73	1025.8	388.06	-724.69	1026.4	295.26	-566.72	897.47	529.05	-639.07	881.45	165.09	-609.31	1072.5	500.21	-623.18	1069.9	191.6	-741.02	986.73	344	-528.7	696.63	508.3	-430	626.33	461.58	-498.22	613.93	482.42	-454.78	715.32	486.4	-437.49	524.89	452.49	-478.45	523.76	332.42	-490.35	334.77	461.35	-429.27	275.83	429.81	-488.15	257.91	450.62	-430.71	353.6	442.81	-487.99	91.826	407.84	-462.43	115.44	329.75	-536.34	64.202	356.57	-522.17	38.335	328.33	-529.29	38.328	389.79	NaN	NaN	NaN	-339.13	55.162	315.14	-276.93	79.537	361.52	-684.01	678.75	180.27	-606.1	578.39	183.82	-675.98	587.84	189.55	-613.43	665.96	170.49	-678.97	493	197.24	-661.85	478	322.37	-841.6	418.51	193.85	-869.53	310.69	209.68	-900.55	375.44	209.25	-810.39	361.35	196.63	-1018.3	251.1	215.32	-999.15	235.69	303.88	-1046.7	298.68	264.85	-1074.4	283.47	299.81	-1075	285.64	235.17	-1058.8	108.12	219.98	-1040.2	102.19	333.66	-1013.6	41.249	291.75	-717.58	1500.3	357.57	-750.22	1212.3	351
